<svg xmlns="http://www.w3.org/2000/svg" viewBox="0 0 48 45"><g><g><path fill="#333332" d="M47.45,19.25a1,1,0,0,0-.9-.57H43.62A21.71,21.71,0,1,0,41.08,33.5a2,2,0,0,0-3.42-2,17.79,17.79,0,1,1,1.92-12.84h-2.9a1,1,0,0,0-.9.57,1,1,0,0,0,.14,1.05l4.94,5.93a1,1,0,0,0,1.51,0l4.94-5.93A1,1,0,0,0,47.45,19.25Z"/><path fill="#333332" class="cls-1" d="M22.27,5.85a2,2,0,0,0-2,2v12a3.46,3.46,0,0,0,2,6.29,3.35,3.35,0,0,0,1.45-.33l6.87,4a2,2,0,1,0,2-3.42l-6.88-4a3.41,3.41,0,0,0-1.45-2.52v-12A2,2,0,0,0,22.27,5.85Zm0,18.26a1.48,1.48,0,1,1,1.48-1.48A1.49,1.49,0,0,1,22.27,24.11Z"/></g></g></svg>