<svg xmlns="http://www.w3.org/2000/svg" viewBox="0 0 84 85"><g><path fill="#333332" d="M32.21,81.65a2.29,2.29,0,0,0,2.3,2.29H48.85a2.29,2.29,0,0,0,2.3-2.29V77.2a36,36,0,0,0,8.61-3.57l3.14,3.14a2.29,2.29,0,0,0,3.24,0L76.28,66.63a2.29,2.29,0,0,0,0-3.25l-3.14-3.13a35.6,35.6,0,0,0,3.57-8.61h4.43a2.3,2.3,0,0,0,2.3-2.3V35a2.3,2.3,0,0,0-2.3-2.3H76.71a35.6,35.6,0,0,0-3.57-8.61L76.26,21a2.27,2.27,0,0,0,0-3.24L66.12,7.59a2.29,2.29,0,0,0-3.25,0l-3.11,3.12a35.6,35.6,0,0,0-8.61-3.57V2.73A2.29,2.29,0,0,0,48.85.44H34.51a2.29,2.29,0,0,0-2.3,2.29V7.14a35.53,35.53,0,0,0-8.6,3.57L20.49,7.59a2.28,2.28,0,0,0-3.24,0L7.1,17.73A2.29,2.29,0,0,0,7.1,21l3.12,3.12A36,36,0,0,0,6.65,32.7H2.23A2.3,2.3,0,0,0-.07,35V49.34a2.32,2.32,0,0,0,2.3,2.3H6.65a36,36,0,0,0,3.57,8.61L7.08,63.38a2.31,2.31,0,0,0,0,3.25L17.22,76.77a2.29,2.29,0,0,0,1.62.67h0a2.31,2.31,0,0,0,1.63-.67l3.13-3.14a36.17,36.17,0,0,0,8.61,3.57ZM24.5,68.81a2.29,2.29,0,0,0-2.86.3l-2.8,2.8L12,65l2.79-2.79a2.29,2.29,0,0,0,.3-2.86A31.35,31.35,0,0,1,10.7,48.86a2.29,2.29,0,0,0-2.25-1.81H4.51V37.29H8.45a2.29,2.29,0,0,0,2.25-1.81A31.35,31.35,0,0,1,15,25a2.28,2.28,0,0,0-.3-2.86L12,19.35l6.9-6.89,2.77,2.77a2.29,2.29,0,0,0,2.86.3A31.35,31.35,0,0,1,35,11.19,2.3,2.3,0,0,0,36.8,8.94V5h9.76V8.94a2.3,2.3,0,0,0,1.81,2.25,31.35,31.35,0,0,1,10.49,4.34,2.28,2.28,0,0,0,2.86-.3l2.78-2.77,6.9,6.89-2.78,2.77a2.3,2.3,0,0,0-.3,2.87,31.35,31.35,0,0,1,4.34,10.49,2.3,2.3,0,0,0,2.25,1.81h3.94v9.76H74.91a2.3,2.3,0,0,0-2.25,1.81,31.35,31.35,0,0,1-4.34,10.49,2.29,2.29,0,0,0,.3,2.86L71.41,65l-6.89,6.91-2.79-2.8a2.3,2.3,0,0,0-2.87-.3,31.35,31.35,0,0,1-10.49,4.34,2.29,2.29,0,0,0-1.81,2.25v3.95H36.8V75.4A2.3,2.3,0,0,0,35,73.15,31.35,31.35,0,0,1,24.5,68.81Z"/><path fill="#333332" class="cls-1" d="M60.64,42.19a19,19,0,1,0-19,19A19,19,0,0,0,60.64,42.19Zm-33.33,0A14.37,14.37,0,1,1,41.68,56.56,14.39,14.39,0,0,1,27.31,42.19Z"/></g></svg>