<svg xmlns="http://www.w3.org/2000/svg" viewBox="0 0 24 33" width="25px" height="34.5px"><g><path fill="#396BDC" d="M11.79.25A11.94,11.94,0,0,0,0,12.33,14.26,14.26,0,0,0,1,17,20.22,20.22,0,0,0,2.39,19.6l8.06,12.55a1.63,1.63,0,0,0,1.34.81,1.63,1.63,0,0,0,1.34-.81L21.2,19.6A20.22,20.22,0,0,0,22.56,17a14.37,14.37,0,0,0,1-4.66A11.93,11.93,0,0,0,11.79.25Zm9.49,16.18A17.33,17.33,0,0,1,20,18.81L12,31.37c-.16.25-.21.25-.37,0L3.54,18.81A18.51,18.51,0,0,1,2.3,16.43a13,13,0,0,1-.89-4.1A10.54,10.54,0,0,1,11.79,1.67,10.54,10.54,0,0,1,22.17,12.33,12.83,12.83,0,0,1,21.28,16.43Z"/><path fill="#396BDC" class="cls-1" d="M11.79,5.94a6.32,6.32,0,0,0-6.22,6.39,6.32,6.32,0,0,0,6.22,6.4A6.32,6.32,0,0,0,18,12.33,6.32,6.32,0,0,0,11.79,5.94Zm0,11.37a4.91,4.91,0,0,1-4.84-5,4.91,4.91,0,0,1,4.84-5,4.91,4.91,0,0,1,4.84,5A4.91,4.91,0,0,1,11.79,17.31Z"/></g></svg>