<svg xmlns="http://www.w3.org/2000/svg" viewBox="0 0 26 23" width="26px" height="23.5px"><g><g style="opacity: 0.5;"><path fill="#006be0" d="M25.29,3a9.72,9.72,0,0,1-2.91.88A5.59,5.59,0,0,0,24.61.83a9.92,9.92,0,0,1-3.23,1.36A4.84,4.84,0,0,0,17.68.42,5.34,5.34,0,0,0,12.61,6a6.51,6.51,0,0,0,.13,1.27A14,14,0,0,1,2.29,1.44,5.93,5.93,0,0,0,1.6,4.25,5.75,5.75,0,0,0,3.86,8.89a4.73,4.73,0,0,1-2.3-.7v.07a5.48,5.48,0,0,0,4.07,5.47,4.57,4.57,0,0,1-1.34.2,5,5,0,0,1-1-.1A5.16,5.16,0,0,0,8.08,17.7a9.61,9.61,0,0,1-6.3,2.39A9.58,9.58,0,0,1,.57,20a13.36,13.36,0,0,0,7.77,2.51c9.33,0,14.43-8.5,14.43-15.88l0-.72A10.66,10.66,0,0,0,25.29,3Z"/></g></g></svg>