<svg xmlns="http://www.w3.org/2000/svg" viewBox="0 0 47 45"><g><path fill="#FFFFFF" d="M23.41,0a17.22,17.22,0,0,0-17.2,17.2V33.05a4,4,0,0,0,7.94,0V19.82a4,4,0,0,0-4-4,4.07,4.07,0,0,0-1.26.22,14.54,14.54,0,0,1,29,0,3.85,3.85,0,0,0-1.27-.21,4,4,0,0,0-4,4V33.05a4,4,0,0,0,4,4A4.12,4.12,0,0,0,38,36.78v1.56a1.33,1.33,0,0,1-1.32,1.33h-9.5a4,4,0,1,0,0,2.64h9.5a4,4,0,0,0,4-4V17.18A17.22,17.22,0,0,0,23.41,0Z"/><path fill="#FFFFFF" d="M43.25,18.74V34.13a4,4,0,0,0,2.65-3.72V22.47A4,4,0,0,0,43.25,18.74Z"/><path fill="#FFFFFF" d="M.92,22.47v7.94a4,4,0,0,0,2.65,3.72V18.74A4,4,0,0,0,.92,22.47Z"/></g></svg>