<svg xmlns="http://www.w3.org/2000/svg" viewBox="0 0 22 38" width="22.5px" height="29px"><g><path fill="#396BDC" d="M14.09,2H7.87a.62.62,0,1,0,0,1.24h6.22a.62.62,0,0,0,0-1.24Z"/><path fill="#396BDC" class="cls-1" d="M18.44,2h-.62a.62.62,0,0,0,0,1.24h.62a.62.62,0,1,0,0-1.24Z"/><path fill="#396BDC" class="cls-1" d="M11.75,31.84H10.21A1.7,1.7,0,0,0,8.5,33.55v.3a1.71,1.71,0,0,0,1.71,1.72h1.54a1.72,1.72,0,0,0,1.72-1.72v-.3A1.71,1.71,0,0,0,11.75,31.84Zm.48,2a.48.48,0,0,1-.48.47H10.21a.47.47,0,0,1-.47-.47v-.3a.47.47,0,0,1,.47-.47h1.54a.48.48,0,0,1,.48.47Z"/><path fill="#396BDC" class="cls-1" d="M19.31.12H2.66A2.25,2.25,0,0,0,.41,2.37V35.18a2.25,2.25,0,0,0,2.25,2.25H19.3a2.25,2.25,0,0,0,2.25-2.25V2.37A2.25,2.25,0,0,0,19.31.12Zm1,35.06a1,1,0,0,1-1,1H2.66a1,1,0,0,1-1-1V2.37a1,1,0,0,1,1-1H19.3a1,1,0,0,1,1,1V35.18Z"/><path fill="#396BDC" class="cls-1" d="M20.93,3.85H1a.63.63,0,0,0-.62.63V30.59a.62.62,0,0,0,.62.62h19.9a.62.62,0,0,0,.62-.62V4.48A.63.63,0,0,0,20.93,3.85ZM20.31,30H1.66V5.1H20.31Z"/></g></svg>