<svg xmlns="http://www.w3.org/2000/svg" xmlns:xlink="http://www.w3.org/1999/xlink" viewBox="0 0 293 51"><defs><style>.cls-1{fill:url(#linear-gradient);}.cls-2{fill:url(#linear-gradient-2);}.cls-3{fill:url(#linear-gradient-3);}.cls-4{font-size:30.77px;fill:#134184;font-family:Avenir-Black, Avenir;font-weight:800;letter-spacing:0em;}.cls-5{letter-spacing:-0.07em;}.cls-6{letter-spacing:-0.09em;}</style><linearGradient id="linear-gradient" x1="15.9" y1="21.39" x2="49.87" y2="21.39" gradientUnits="userSpaceOnUse"><stop offset="0" stop-color="#006be0"/><stop offset="1" stop-color="#54d204"/></linearGradient><linearGradient id="linear-gradient-2" x1="0.25" y1="27.63" x2="44.16" y2="27.63" xlink:href="#linear-gradient"/><linearGradient id="linear-gradient-3" x1="0.41" y1="33.07" x2="28.02" y2="33.07" xlink:href="#linear-gradient"/></defs><title>Pag.Dispatcheckai</title><g id="Layer_1" data-name="Layer 1"><path class="cls-1" d="M16.07.31C20.46.45,25.62.3,30,1c3.7.59,7.46,1.42,10.64,3.41,6.21,3.91,9.09,10.89,9.26,18A34.68,34.68,0,0,1,48.42,33a37.29,37.29,0,0,1-1.88,5c-.31.66-2.61,3.92-2.44,4.46L40.71,32.11a14.17,14.17,0,0,1-.82-2.4,17.53,17.53,0,0,1,.2-3.54c.32-4.22.3-7.54-1.7-11.27A16.55,16.55,0,0,0,31.74,8c-3.26-1.82-5.58-3.43-9.44-4.5C19.6,2.78,14.94.27,16.07.31Z"/><path class="cls-2" d="M35.37,48.34c2.36,1.08,5.88-2.16,7.39-3.63a4.3,4.3,0,0,0,1.33-2,4.71,4.71,0,0,0-.19-2.26,63,63,0,0,0-6.63-15.41C34,19.61,29.7,14.62,24,11.65A52.46,52.46,0,0,0,12.42,7.78,69.8,69.8,0,0,0,2.64,6.72,2.23,2.23,0,0,0,.9,7.1,2.2,2.2,0,0,0,.39,8.43a53,53,0,0,0,0,7.33c0,.2.51.05,1.28,0A67.59,67.59,0,0,1,14,16.27c9,1.88,18.18,9.64,20.31,18.92.94,4.13.86,8.42.79,12.66A.47.47,0,0,0,35.37,48.34Z"/><path class="cls-3" d="M24.85,32.05A19.11,19.11,0,0,0,14,24.3a28.41,28.41,0,0,0-5.47-1.05s-.21-5.13.43-7.49c-1.5-.43-8.58,0-8.58,0S.51,28.82.49,31.6c0,.31,0,.67.28.84a1,1,0,0,0,.7.05,34.45,34.45,0,0,1,5.64-.66c4.17-.1,7.56.34,9.76,4,2.64,4.39,2.47,8.9.4,11.53a2.4,2.4,0,0,1-1.33.78,3.41,3.41,0,0,1-4.16-3.71,6.28,6.28,0,0,0-3.65-6.57,7.16,7.16,0,0,0-7.72.65c0,.79.08,11,.08,11a.81.81,0,0,0,.22.59.83.83,0,0,0,.58.24s25.67.39,25.9.23a1.31,1.31,0,0,0,.42-.88C28.58,44.11,27.89,36.87,24.85,32.05Z"/><text class="cls-4" transform="translate(58.37 39.79) scale(1.1 1)">DIS<tspan class="cls-5" x="50.58" y="0">P</tspan><tspan class="cls-6" x="67.84" y="0">A</tspan><tspan x="87.97" y="0">TCHECK</tspan></text></g></svg>