<svg xmlns="http://www.w3.org/2000/svg" xmlns:xlink="http://www.w3.org/1999/xlink" viewBox="0 0 159 117"><defs><style>.cls-1{fill:url(#linear-gradient);}.cls-2{fill:url(#linear-gradient-2);}.cls-3{fill:url(#linear-gradient-3);}.cls-4{font-size:20.77px;fill:#134184;font-family:Avenir-Black, Avenir;font-weight:800;letter-spacing:0.01em;}.cls-5{letter-spacing:-0.07em;}.cls-6{letter-spacing:-0.09em;}</style><linearGradient id="linear-gradient" x1="65.46" y1="39.07" x2="126.33" y2="39.07" gradientUnits="userSpaceOnUse"><stop offset="0" stop-color="#006be0"/><stop offset="1" stop-color="#54d204"/></linearGradient><linearGradient id="linear-gradient-2" x1="37.42" y1="50.25" x2="116.1" y2="50.25" xlink:href="#linear-gradient"/><linearGradient id="linear-gradient-3" x1="37.7" y1="60.01" x2="87.17" y2="60.01" xlink:href="#linear-gradient"/></defs><title>Pag.Dispatcheckai</title><g id="Layer_1" data-name="Layer 1"><path class="cls-1" d="M65.77,1.31c7.86.26,17.1,0,24.87,1.22C97.28,3.59,104,5.07,109.71,8.65c11.12,7,16.3,19.51,16.6,32.29a62.3,62.3,0,0,1-2.6,18.94,65.06,65.06,0,0,1-3.36,9c-.55,1.18-4.68,7-4.36,8l-6.08-18.55A25.19,25.19,0,0,1,108.44,54a32.18,32.18,0,0,1,.36-6.34c.57-7.56.54-13.51-3-20.19a29.72,29.72,0,0,0-11.91-12.3C88,11.88,83.84,9,76.92,7.08,72.09,5.73,63.75,1.24,65.77,1.31Z"/><path class="cls-2" d="M100.34,87.36c4.23,1.93,10.54-3.87,13.24-6.49A7.82,7.82,0,0,0,116,77.32a8.33,8.33,0,0,0-.35-4,112.45,112.45,0,0,0-11.87-27.6C98,35.9,90.18,27,80,21.62c-8.54-4.46-20.76-6.92-20.76-6.92A125.8,125.8,0,0,0,41.7,12.79a4.06,4.06,0,0,0-3.11.68,3.88,3.88,0,0,0-.91,2.39c-.59,4.44,0,10.82,0,13.13,0,.37.92.09,2.31,0,5.69-.37,17.68,0,22.06.92C78.19,33.28,94.65,47.17,98.45,63.8c1.69,7.41,1.55,15.09,1.42,22.68A.84.84,0,0,0,100.34,87.36Z"/><path class="cls-3" d="M81.5,58.17C77.17,51.3,69.89,46.63,62.1,44.29a50.88,50.88,0,0,0-9.78-1.87s-.39-9.2.76-13.43c-2.69-.77-15.38,0-15.38,0s.18,23.41.15,28.39a1.72,1.72,0,0,0,.5,1.5A1.68,1.68,0,0,0,39.6,59a62.41,62.41,0,0,1,10.11-1.19c7.48-.18,13.55.62,17.49,7.17,4.72,7.87,4.42,16,.72,20.65A4.28,4.28,0,0,1,65.53,87a6.1,6.1,0,0,1-7.45-6.65c.44-3.85-.71-8.72-6.54-11.76A12.84,12.84,0,0,0,37.7,69.74c0,1.42.15,19.66.15,19.66a1.41,1.41,0,0,0,.39,1.06,1.45,1.45,0,0,0,1,.43s46,.7,46.39.41a2.36,2.36,0,0,0,.76-1.58C88.18,79.78,87,66.81,81.5,58.17Z"/><text class="cls-4" transform="translate(-0.09 116.58) scale(1.1 1)">DIS<tspan class="cls-5" x="34.15" y="0">P</tspan><tspan class="cls-6" x="45.81" y="0">A</tspan><tspan x="59.39" y="0">TCHECK</tspan></text></g></svg>