<svg xmlns="http://www.w3.org/2000/svg" xmlns:xlink="http://www.w3.org/1999/xlink" viewBox="0 0 90 90"><defs><style>.cls-1{fill:url(#linear-gradient);}.cls-2{fill:url(#linear-gradient-2);}.cls-3{fill:url(#linear-gradient-3);}</style><linearGradient id="linear-gradient" x1="28.46" y1="38.07" x2="89.33" y2="38.07" gradientUnits="userSpaceOnUse"><stop offset="0" stop-color="#006be0"/><stop offset="1" stop-color="#54d204"/></linearGradient><linearGradient id="linear-gradient-2" x1="0.42" y1="49.25" x2="79.1" y2="49.25" xlink:href="#linear-gradient"/><linearGradient id="linear-gradient-3" x1="0.7" y1="59.01" x2="50.17" y2="59.01" xlink:href="#linear-gradient"/></defs><title>Pag.Dispatcheckai</title><g id="Layer_1" data-name="Layer 1"><path class="cls-1" d="M28.77.31c7.86.26,17.1,0,24.87,1.22C60.28,2.59,67,4.07,72.71,7.65c11.12,7,16.3,19.51,16.6,32.29a62.3,62.3,0,0,1-2.6,18.94,65.06,65.06,0,0,1-3.36,9c-.55,1.18-4.68,7-4.36,8L72.91,57.29A25.19,25.19,0,0,1,71.44,53a32.18,32.18,0,0,1,.36-6.34c.57-7.56.54-13.51-3-20.19a29.72,29.72,0,0,0-11.91-12.3C51,10.88,46.84,8,39.92,6.08,35.09,4.73,26.75.24,28.77.31Z"/><path class="cls-2" d="M63.34,86.36c4.23,1.93,10.54-3.87,13.24-6.49A7.82,7.82,0,0,0,79,76.32a8.33,8.33,0,0,0-.35-4,112.45,112.45,0,0,0-11.87-27.6C61,34.9,53.18,26,43,20.62c-8.54-4.46-20.76-6.92-20.76-6.92A125.8,125.8,0,0,0,4.7,11.79a4.06,4.06,0,0,0-3.11.68,3.88,3.88,0,0,0-.91,2.39C.09,19.3.7,25.68.7,28c0,.37.92.09,2.31,0,5.69-.37,17.68,0,22.06.92C41.19,32.28,57.65,46.17,61.45,62.8c1.69,7.41,1.55,15.09,1.42,22.68A.84.84,0,0,0,63.34,86.36Z"/><path class="cls-3" d="M44.5,57.17C40.17,50.3,32.89,45.63,25.1,43.29a50.88,50.88,0,0,0-9.78-1.87s-.39-9.2.76-13.43C13.39,27.22.7,28,.7,28S.88,51.4.85,56.38a1.72,1.72,0,0,0,.5,1.5A1.68,1.68,0,0,0,2.6,58a62.41,62.41,0,0,1,10.11-1.19c7.48-.18,13.55.62,17.49,7.17,4.72,7.87,4.42,16,.72,20.65A4.28,4.28,0,0,1,28.53,86a6.1,6.1,0,0,1-7.45-6.65c.44-3.85-.71-8.72-6.54-11.76A12.84,12.84,0,0,0,.7,68.74c0,1.42.15,19.66.15,19.66a1.41,1.41,0,0,0,.39,1.06,1.45,1.45,0,0,0,1.05.43s46,.7,46.39.41a2.36,2.36,0,0,0,.76-1.58C51.18,78.78,50,65.81,44.5,57.17Z"/></g></svg>